<?xml version="1.0" encoding="UTF-8"?>
<svg id="Layer_1" data-name="Layer 1" xmlns="http://www.w3.org/2000/svg" viewBox="0 0 500 500">
  <path d="M284.77,232.07h-1.89s-127.81-52.63-127.81-52.63v-4.63s121.73-49.76,121.73-49.76l1.81-.03,135.78,49.76.08,4.66-129.69,52.63ZM162.61,177.14l121.23,49.92,122.74-49.81-128.79-47.19-115.19,47.08Z"/>
  <path d="M284.77,375.13c-.3,0-.6-.05-.88-.16l-127.31-47.95c-.97-.36-1.61-1.28-1.62-2.32l-.16-16.1,5-.05.14,14.39,124.79,47,126.29-51.65v-137.46l-126.25,51.23c-.61.25-1.29.25-1.89,0l-124.32-51.19.35,36.05-5,.05-.39-39.83c0-.84.4-1.62,1.1-2.09.7-.47,1.58-.56,2.35-.24l126.86,52.24,128.74-52.24c.77-.31,1.65-.22,2.34.24.69.46,1.1,1.24,1.1,2.07v142.85c0,1.02-.61,1.93-1.55,2.31l-128.75,52.66c-.3.12-.62.19-.95.19Z"/>
  <rect x="281.33" y="229.75" width="5" height="142.85"/>
  <rect x="216.82" y="175.57" width="134.03" height="5" transform="translate(-46.29 120.74) rotate(-22.25)"/>
  <rect x="86.48" y="227.25" width="95.86" height="5"/>
  <rect x="127.83" y="261.09" width="80.82" height="5"/>
  <rect x="107.15" y="294.92" width="82.7" height="5"/>
  <rect x="153.52" y="239.15" width="5" height="13.16"/>
  <rect x="153.52" y="272.98" width="5" height="15.04"/>
</svg>