<?xml version="1.0" encoding="UTF-8"?>
<svg id="Layer_1" data-name="Layer 1" xmlns="http://www.w3.org/2000/svg" viewBox="0 0 500 500">
  <path d="M316.25,346.53H105.66c-11.35,0-20.59-9.24-20.59-20.59v-180.48c0-11.35,9.24-20.59,20.59-20.59h254.08c11.35,0,20.59,9.24,20.59,20.59v100.64h-5v-100.64c0-8.6-6.99-15.59-15.59-15.59H105.66c-8.6,0-15.59,6.99-15.59,15.59v180.48c0,8.6,6.99,15.59,15.59,15.59h210.59v5Z"/>
  <rect x="88.44" y="163.87" width="290.26" height="5"/>
  <rect x="88.44" y="205.47" width="290.26" height="5"/>
  <path d="M184.64,307.53c-16.19,0-29.37-13.17-29.37-29.37s13.17-29.37,29.37-29.37,29.37,13.17,29.37,29.37-13.17,29.37-29.37,29.37ZM184.64,253.8c-13.43,0-24.37,10.93-24.37,24.37s10.93,24.37,24.37,24.37,24.37-10.93,24.37-24.37-10.93-24.37-24.37-24.37Z"/>
  <path d="M149.97,307.53c-16.19,0-29.37-13.17-29.37-29.37s13.17-29.37,29.37-29.37c7.84,0,15.22,3.05,20.76,8.6l-3.54,3.54c-4.6-4.6-10.72-7.14-17.23-7.14-13.44,0-24.37,10.93-24.37,24.37s10.93,24.37,24.37,24.37c6.51,0,12.63-2.53,17.23-7.14l3.54,3.54c-5.55,5.55-12.92,8.6-20.76,8.6Z"/>
  <path d="M369.16,375.13c-36.26,0-65.76-29.5-65.76-65.76s29.5-65.76,65.76-65.76,65.76,29.5,65.76,65.76-29.5,65.76-65.76,65.76ZM369.16,248.6c-33.51,0-60.76,27.26-60.76,60.76s27.26,60.76,60.76,60.76,60.76-27.26,60.76-60.76-27.26-60.76-60.76-60.76Z"/>
  <path d="M357.9,330.06h-.05c-.68-.01-1.32-.3-1.79-.8l-16.9-18.2,3.66-3.4,15.14,16.3,38.03-38.03,3.54,3.54-39.87,39.87c-.47.47-1.11.73-1.77.73Z"/>
</svg>