<?xml version="1.0" encoding="UTF-8"?>
<svg id="Layer_1" data-name="Layer 1" xmlns="http://www.w3.org/2000/svg" viewBox="0 0 500 500">
  <path d="M323.69,247.82h-149.78c-.92,0-1.77-.51-2.2-1.32-.44-.81-.39-1.8.12-2.57l18.72-28.08c.46-.7,1.24-1.11,2.08-1.11h112.33c.84,0,1.62.42,2.08,1.11l18.72,28.08c.51.77.56,1.75.12,2.57-.43.81-1.28,1.32-2.2,1.32ZM178.59,242.82h140.43l-15.39-23.08h-109.66l-15.39,23.08Z"/>
  <rect x="171.42" y="245.32" width="5" height="96.42"/>
  <rect x="321.19" y="245.32" width="5" height="100.16"/>
  <rect x="246.31" y="217.24" width="5" height="28.08"/>
  <path d="M249.74,375.13c-27.32,0-54.03-9.46-75.21-26.63-20.88-16.92-35.59-40.61-41.42-66.68l4.88-1.09c5.59,24.98,19.68,47.67,39.69,63.89,20.29,16.45,45.89,25.51,72.06,25.51,60.26,0,110.46-47.06,114.28-107.14l4.99.32c-3.98,62.7-56.37,111.82-119.27,111.82Z"/>
  <path d="M376.2,279.8l-9.9-14.09-13.63,9.68-2.89-4.08,15.68-11.14c.54-.39,1.22-.54,1.87-.43.66.11,1.24.48,1.62,1.03l11.35,16.14-4.09,2.88Z"/>
  <path d="M136.28,237.01l-4.99-.32c3.98-62.7,56.37-111.82,119.27-111.82,27.32,0,54.03,9.46,75.21,26.63,20.88,16.93,35.58,40.61,41.42,66.68l-4.88,1.09c-5.59-24.98-19.68-47.67-39.69-63.89-20.29-16.45-45.89-25.51-72.07-25.51-60.26,0-110.46,47.06-114.28,107.14Z"/>
  <path d="M133.64,242.18c-.11,0-.23,0-.34-.02-.66-.09-1.25-.44-1.66-.97l-11.88-15.75,3.99-3.01,10.37,13.75,13.3-10.14,3.03,3.98-15.3,11.66c-.44.33-.97.51-1.52.51Z"/>
  <path d="M299.36,298.37h-43.06c-1.38,0-2.5-1.12-2.5-2.5v-20.59c0-1.38,1.12-2.5,2.5-2.5h43.06c1.38,0,2.5,1.12,2.5,2.5v20.59c0,1.38-1.12,2.5-2.5,2.5ZM258.79,293.37h38.06v-15.59h-38.06v15.59Z"/>
</svg>